# Blender v2.80 (sub 75) OBJ File: 'actions_pray.blend'
# www.blender.org
mtllib axis.mtl
o axis_Sphere
v 0.342199 1.166183 0.304399
v 0.342199 1.163174 0.317580
v 0.342199 1.223934 0.317580
v 0.349947 1.220926 0.306916
v 0.356160 1.212496 0.298365
v 0.359608 1.200315 0.293619
v 0.359608 1.186794 0.293619
v 0.356160 1.174613 0.298365
v 0.349947 1.166183 0.306916
v 0.354735 1.220926 0.313507
v 0.364789 1.212496 0.310241
v 0.370368 1.200315 0.308428
v 0.370368 1.186794 0.308428
v 0.364789 1.174613 0.310241
v 0.354735 1.166183 0.313507
v 0.354735 1.220926 0.321654
v 0.364789 1.212496 0.324920
v 0.370368 1.200315 0.326733
v 0.370368 1.186794 0.326733
v 0.364789 1.174613 0.324920
v 0.354735 1.166183 0.321654
v 0.349947 1.220926 0.328244
v 0.356160 1.212496 0.336796
v 0.359608 1.200315 0.341542
v 0.359608 1.186794 0.341542
v 0.356160 1.174613 0.336796
v 0.349947 1.166183 0.328244
v 0.342199 1.220926 0.330762
v 0.342199 1.212496 0.341333
v 0.342199 1.200315 0.347199
v 0.342199 1.186794 0.347199
v 0.342199 1.174613 0.341333
v 0.342199 1.166183 0.330762
v 0.334451 1.220926 0.328244
v 0.328238 1.212496 0.336796
v 0.324790 1.200315 0.341542
v 0.324790 1.186794 0.341542
v 0.328238 1.174613 0.336796
v 0.334451 1.166183 0.328244
v 0.329663 1.220926 0.321654
v 0.319610 1.212496 0.324920
v 0.314030 1.200315 0.326733
v 0.314030 1.186794 0.326733
v 0.319610 1.174613 0.324920
v 0.329663 1.166183 0.321654
v 0.329663 1.220926 0.313507
v 0.319610 1.212496 0.310241
v 0.314030 1.200315 0.308428
v 0.314030 1.186794 0.308428
v 0.319610 1.174613 0.310241
v 0.329663 1.166183 0.313507
v 0.334451 1.220926 0.306916
v 0.328238 1.212496 0.298365
v 0.324790 1.200315 0.293619
v 0.324790 1.186794 0.293619
v 0.328238 1.174613 0.298365
v 0.334451 1.166183 0.306916
v 0.342199 1.220926 0.304399
v 0.342199 1.212496 0.293828
v 0.342199 1.200315 0.287962
v 0.342199 1.186794 0.287962
v 0.342199 1.174613 0.293828
v 0.336214 1.212018 0.323513
v 0.336214 1.509028 0.323513
v 0.336214 1.212018 0.311450
v 0.336214 1.509028 0.311450
v 0.348277 1.212018 0.323513
v 0.348277 1.509028 0.323513
v 0.348277 1.212018 0.311450
v 0.348277 1.509028 0.311450
v 0.322266 1.489597 0.337461
v 0.322266 1.489597 0.297502
v 0.362225 1.489597 0.297502
v 0.362225 1.489597 0.337461
v 0.336214 1.488559 0.311450
v 0.348277 1.488559 0.311450
v 0.348277 1.488559 0.323513
v 0.336214 1.488559 0.323513
v 0.361478 1.201173 0.323513
v 0.658488 1.201173 0.323513
v 0.361478 1.201173 0.311450
v 0.658488 1.201173 0.311450
v 0.361478 1.189110 0.323513
v 0.658488 1.189110 0.323513
v 0.361478 1.189110 0.311450
v 0.658488 1.189110 0.311450
v 0.639056 1.215121 0.337461
v 0.639056 1.215121 0.297502
v 0.639056 1.175162 0.297502
v 0.639056 1.175162 0.337461
v 0.638018 1.201173 0.311450
v 0.638018 1.189110 0.311450
v 0.638018 1.189110 0.323513
v 0.638018 1.201173 0.323513
v 0.336581 1.201173 0.338740
v 0.336581 1.201173 0.635750
v 0.348645 1.201173 0.338740
v 0.348645 1.201173 0.635750
v 0.336581 1.189110 0.338740
v 0.336581 1.189110 0.635750
v 0.348645 1.189110 0.338740
v 0.348645 1.189110 0.635750
v 0.322633 1.215121 0.616318
v 0.362593 1.215121 0.616318
v 0.362593 1.175162 0.616318
v 0.322633 1.175162 0.616318
v 0.348645 1.201173 0.615280
v 0.348645 1.189110 0.615280
v 0.336581 1.189110 0.615280
v 0.336581 1.201173 0.615280
vt 0.608644 0.000000
vt 0.625000 0.000000
vt 0.625000 0.250000
vt 0.608644 0.250000
vt 0.625000 0.500000
vt 0.608644 0.500000
vt 0.625000 0.750000
vt 0.608644 0.750000
vt 0.625000 1.000000
vt 0.608644 1.000000
vt 0.125000 0.500000
vt 0.375000 0.500000
vt 0.375000 0.750000
vt 0.125000 0.750000
vt 0.875000 0.500000
vt 0.875000 0.750000
vt 0.607770 0.750000
vt 0.607770 1.000000
vt 0.607770 0.500000
vt 0.607770 0.250000
vt 0.607770 0.000000
vt 0.375000 0.000000
vt 0.375000 0.250000
vt 0.375000 1.000000
vt 0.608644 0.000000
vt 0.625000 0.000000
vt 0.625000 0.250000
vt 0.608644 0.250000
vt 0.625000 0.500000
vt 0.608644 0.500000
vt 0.625000 0.750000
vt 0.608644 0.750000
vt 0.625000 1.000000
vt 0.608644 1.000000
vt 0.125000 0.500000
vt 0.375000 0.500000
vt 0.375000 0.750000
vt 0.125000 0.750000
vt 0.875000 0.500000
vt 0.875000 0.750000
vt 0.607770 0.750000
vt 0.607770 1.000000
vt 0.607770 0.500000
vt 0.607770 0.250000
vt 0.607770 0.000000
vt 0.375000 0.000000
vt 0.375000 0.250000
vt 0.375000 1.000000
vt 0.608644 0.000000
vt 0.625000 0.000000
vt 0.625000 0.250000
vt 0.608644 0.250000
vt 0.625000 0.500000
vt 0.608644 0.500000
vt 0.625000 0.750000
vt 0.608644 0.750000
vt 0.625000 1.000000
vt 0.608644 1.000000
vt 0.125000 0.500000
vt 0.375000 0.500000
vt 0.375000 0.750000
vt 0.125000 0.750000
vt 0.875000 0.500000
vt 0.875000 0.750000
vt 0.607770 0.750000
vt 0.607770 1.000000
vt 0.607770 0.500000
vt 0.607770 0.250000
vt 0.607770 0.000000
vt 0.375000 0.000000
vt 0.375000 0.250000
vt 0.375000 1.000000
vt 0.700000 0.142857
vt 0.700000 0.285714
vt 0.600000 0.285714
vt 0.600000 0.142857
vt 0.700000 0.428571
vt 0.700000 0.571429
vt 0.600000 0.571429
vt 0.600000 0.428571
vt 0.700000 0.714286
vt 0.700000 0.857143
vt 0.600000 0.857143
vt 0.600000 0.714286
vt 0.650000 0.000000
vt 0.650000 1.000000
vt 0.500000 0.285714
vt 0.500000 0.142857
vt 0.500000 0.571429
vt 0.500000 0.428571
vt 0.500000 0.857143
vt 0.500000 0.714286
vt 0.550000 0.000000
vt 0.550000 1.000000
vt 0.400000 0.285714
vt 0.400000 0.142857
vt 0.400000 0.571429
vt 0.400000 0.428571
vt 0.400000 0.857143
vt 0.400000 0.714286
vt 0.450000 0.000000
vt 0.450000 1.000000
vt 0.300000 0.857143
vt 0.300000 0.714286
vt 0.350000 0.000000
vt 0.300000 0.142857
vt 0.300000 0.428571
vt 0.300000 0.285714
vt 0.300000 0.571429
vt 0.350000 1.000000
vt 0.250000 0.000000
vt 0.200000 0.142857
vt 0.200000 0.428571
vt 0.200000 0.285714
vt 0.200000 0.714286
vt 0.200000 0.571429
vt 0.250000 1.000000
vt 0.200000 0.857143
vt 0.100000 0.428571
vt 0.100000 0.285714
vt 0.100000 0.714286
vt 0.100000 0.571429
vt 0.150000 1.000000
vt 0.100000 0.857143
vt 0.100000 0.142857
vt 0.150000 0.000000
vt 0.050000 1.000000
vt 0.000000 0.857143
vt 0.000000 0.285714
vt 0.000000 0.142857
vt 0.000000 0.571429
vt 0.000000 0.428571
vt 0.000000 0.714286
vt 0.050000 0.000000
vt 1.000000 0.142857
vt 1.000000 0.285714
vt 0.900000 0.285714
vt 0.900000 0.142857
vt 1.000000 0.428571
vt 1.000000 0.571429
vt 0.900000 0.571429
vt 0.900000 0.428571
vt 1.000000 0.714286
vt 1.000000 0.857143
vt 0.900000 0.857143
vt 0.900000 0.714286
vt 0.950000 0.000000
vt 0.950000 1.000000
vt 0.800000 0.571429
vt 0.800000 0.428571
vt 0.800000 0.857143
vt 0.800000 0.714286
vt 0.850000 0.000000
vt 0.800000 0.142857
vt 0.800000 0.285714
vt 0.850000 1.000000
vt 0.750000 0.000000
vt 0.750000 1.000000
vn 0.5831 0.8124 0.0000
vn 0.5831 0.0000 -0.8124
vn 0.5831 -0.8124 0.0000
vn 0.5831 0.0000 0.8124
vn -1.0000 0.0000 0.0000
vn 1.0000 0.0000 0.0000
vn -0.9972 0.0000 0.0742
vn -0.9972 -0.0742 0.0000
vn -0.9972 0.0000 -0.0742
vn -0.9972 0.0742 0.0000
vn 0.0000 1.0000 0.0000
vn 0.0000 0.0000 -1.0000
vn 0.0000 -1.0000 0.0000
vn 0.0000 0.0000 1.0000
vn 0.0000 0.8124 0.5831
vn 0.8124 0.0000 0.5831
vn 0.0000 -0.8124 0.5831
vn -0.8124 0.0000 0.5831
vn -0.0742 0.0000 -0.9972
vn 0.0000 -0.0742 -0.9972
vn 0.0742 0.0000 -0.9972
vn 0.0000 0.0742 -0.9972
vn -0.8124 0.5831 0.0000
vn 0.0000 0.5831 -0.8124
vn 0.8124 0.5831 0.0000
vn 0.0000 0.5831 0.8124
vn 0.0000 -0.9972 0.0742
vn 0.0742 -0.9972 0.0000
vn 0.0000 -0.9972 -0.0742
vn -0.0742 -0.9972 0.0000
vn 0.1986 -0.7663 -0.6111
vn 0.3090 0.0000 -0.9511
vn 0.1986 0.7663 -0.6111
vn 0.0721 -0.9724 -0.2219
vn 0.2810 -0.4164 -0.8647
vn 0.2810 0.4164 -0.8647
vn 0.0721 0.9724 -0.2219
vn 0.5198 -0.7663 -0.3777
vn 0.8090 0.0000 -0.5878
vn 0.5198 0.7663 -0.3777
vn 0.1888 -0.9724 -0.1372
vn 0.7355 -0.4164 -0.5344
vn 0.7355 0.4164 -0.5344
vn 0.1888 0.9724 -0.1372
vn 0.6425 -0.7663 0.0000
vn 0.6425 0.7663 0.0000
vn 0.2334 -0.9724 0.0000
vn 0.9092 -0.4164 0.0000
vn 0.9092 0.4164 0.0000
vn 0.2334 0.9724 0.0000
vn 0.5198 0.7663 0.3777
vn 0.1888 -0.9724 0.1372
vn 0.7355 -0.4164 0.5344
vn 0.7355 0.4164 0.5344
vn 0.1888 0.9724 0.1372
vn 0.5198 -0.7663 0.3777
vn 0.8090 0.0000 0.5878
vn 0.0721 -0.9724 0.2219
vn 0.2809 -0.4164 0.8647
vn 0.2809 0.4164 0.8647
vn 0.0721 0.9724 0.2219
vn 0.1985 -0.7663 0.6111
vn 0.3090 0.0000 0.9511
vn 0.1985 0.7663 0.6111
vn -0.2810 -0.4164 0.8647
vn -0.2810 0.4164 0.8647
vn -0.0721 0.9724 0.2219
vn -0.1985 -0.7663 0.6111
vn -0.3090 0.0000 0.9511
vn -0.1985 0.7663 0.6111
vn -0.0721 -0.9724 0.2219
vn -0.1888 0.9724 0.1372
vn -0.5198 -0.7663 0.3777
vn -0.8090 0.0000 0.5878
vn -0.5198 0.7663 0.3777
vn -0.1888 -0.9724 0.1372
vn -0.7355 -0.4164 0.5344
vn -0.7355 0.4164 0.5344
vn -0.6425 -0.7663 0.0000
vn -0.6425 0.7663 0.0000
vn -0.2334 -0.9724 0.0000
vn -0.9092 -0.4164 0.0000
vn -0.9092 0.4164 0.0000
vn -0.2334 0.9724 0.0000
vn -0.8090 0.0000 -0.5878
vn -0.5198 0.7663 -0.3777
vn -0.1888 -0.9724 -0.1372
vn -0.7355 -0.4164 -0.5344
vn -0.7355 0.4164 -0.5344
vn -0.1888 0.9724 -0.1372
vn -0.5198 -0.7663 -0.3777
vn -0.0721 -0.9724 -0.2219
vn -0.2809 -0.4164 -0.8647
vn -0.2809 0.4164 -0.8647
vn -0.0721 0.9724 -0.2219
vn -0.1986 -0.7663 -0.6111
vn -0.3090 0.0000 -0.9511
vn -0.1985 0.7663 -0.6111
g axis_Sphere_Material.001
usemtl Material.001
s off
f 87/1/1 80/2/1 82/3/1 88/4/1
f 88/4/2 82/3/2 86/5/2 89/6/2
f 89/6/3 86/5/3 84/7/3 90/8/3
f 90/8/4 84/7/4 80/9/4 87/10/4
f 81/11/5 85/12/5 83/13/5 79/14/5
f 86/5/6 82/15/6 80/16/6 84/7/6
f 93/17/7 90/8/7 87/10/7 94/18/7
f 92/19/8 89/6/8 90/8/8 93/17/8
f 91/20/9 88/4/9 89/6/9 92/19/9
f 94/21/10 87/1/10 88/4/10 91/20/10
f 79/22/11 94/21/11 91/20/11 81/23/11
f 81/23/12 91/20/12 92/19/12 85/12/12
f 85/12/13 92/19/13 93/17/13 83/13/13
f 83/13/14 93/17/14 94/18/14 79/24/14
g axis_Sphere_Material.002
usemtl Material.002
f 103/25/15 96/26/15 98/27/15 104/28/15
f 104/28/16 98/27/16 102/29/16 105/30/16
f 105/30/17 102/29/17 100/31/17 106/32/17
f 106/32/18 100/31/18 96/33/18 103/34/18
f 97/35/12 101/36/12 99/37/12 95/38/12
f 102/29/14 98/39/14 96/40/14 100/31/14
f 109/41/19 106/32/19 103/34/19 110/42/19
f 108/43/20 105/30/20 106/32/20 109/41/20
f 107/44/21 104/28/21 105/30/21 108/43/21
f 110/45/22 103/25/22 104/28/22 107/44/22
f 95/46/11 110/45/11 107/44/11 97/47/11
f 97/47/6 107/44/6 108/43/6 101/36/6
f 101/36/13 108/43/13 109/41/13 99/37/13
f 99/37/5 109/41/5 110/42/5 95/48/5
g axis_Sphere_Material.003
usemtl Material.003
f 71/49/23 64/50/23 66/51/23 72/52/23
f 72/52/24 66/51/24 70/53/24 73/54/24
f 73/54/25 70/53/25 68/55/25 74/56/25
f 74/56/26 68/55/26 64/57/26 71/58/26
f 65/59/13 69/60/13 67/61/13 63/62/13
f 70/53/11 66/63/11 64/64/11 68/55/11
f 77/65/27 74/56/27 71/58/27 78/66/27
f 76/67/28 73/54/28 74/56/28 77/65/28
f 75/68/29 72/52/29 73/54/29 76/67/29
f 78/69/30 71/49/30 72/52/30 75/68/30
f 63/70/5 78/69/5 75/68/5 65/71/5
f 65/71/12 75/68/12 76/67/12 69/60/12
f 69/60/6 76/67/6 77/65/6 67/61/6
f 67/61/14 77/65/14 78/66/14 63/72/14
g axis_Sphere_Material.004
usemtl Material.004
f 1/73/31 62/74/31 8/75/31 9/76/31
f 61/77/32 60/78/32 6/79/32 7/80/32
f 59/81/33 58/82/33 4/83/33 5/84/33
f 2/85/34 1/73/34 9/76/34
f 62/74/35 61/77/35 7/80/35 8/75/35
f 60/78/36 59/81/36 5/84/36 6/79/36
f 58/82/37 3/86/37 4/83/37
f 9/76/38 8/75/38 14/87/38 15/88/38
f 7/80/39 6/79/39 12/89/39 13/90/39
f 5/84/40 4/83/40 10/91/40 11/92/40
f 2/93/41 9/76/41 15/88/41
f 8/75/42 7/80/42 13/90/42 14/87/42
f 6/79/43 5/84/43 11/92/43 12/89/43
f 4/83/44 3/94/44 10/91/44
f 15/88/45 14/87/45 20/95/45 21/96/45
f 13/90/6 12/89/6 18/97/6 19/98/6
f 11/92/46 10/91/46 16/99/46 17/100/46
f 2/101/47 15/88/47 21/96/47
f 14/87/48 13/90/48 19/98/48 20/95/48
f 12/89/49 11/92/49 17/100/49 18/97/49
f 10/91/50 3/102/50 16/99/50
f 17/100/51 16/99/51 22/103/51 23/104/51
f 2/105/52 21/96/52 27/106/52
f 20/95/53 19/98/53 25/107/53 26/108/53
f 18/97/54 17/100/54 23/104/54 24/109/54
f 16/99/55 3/110/55 22/103/55
f 21/96/56 20/95/56 26/108/56 27/106/56
f 19/98/57 18/97/57 24/109/57 25/107/57
f 2/111/58 27/106/58 33/112/58
f 26/108/59 25/107/59 31/113/59 32/114/59
f 24/109/60 23/104/60 29/115/60 30/116/60
f 22/103/61 3/117/61 28/118/61
f 27/106/62 26/108/62 32/114/62 33/112/62
f 25/107/63 24/109/63 30/116/63 31/113/63
f 23/104/64 22/103/64 28/118/64 29/115/64
f 32/114/65 31/113/65 37/119/65 38/120/65
f 30/116/66 29/115/66 35/121/66 36/122/66
f 28/118/67 3/123/67 34/124/67
f 33/112/68 32/114/68 38/120/68 39/125/68
f 31/113/69 30/116/69 36/122/69 37/119/69
f 29/115/70 28/118/70 34/124/70 35/121/70
f 2/126/71 33/112/71 39/125/71
f 34/124/72 3/127/72 40/128/72
f 39/125/73 38/120/73 44/129/73 45/130/73
f 37/119/74 36/122/74 42/131/74 43/132/74
f 35/121/75 34/124/75 40/128/75 41/133/75
f 2/134/76 39/125/76 45/130/76
f 38/120/77 37/119/77 43/132/77 44/129/77
f 36/122/78 35/121/78 41/133/78 42/131/78
f 45/135/79 44/136/79 50/137/79 51/138/79
f 43/139/5 42/140/5 48/141/5 49/142/5
f 41/143/80 40/144/80 46/145/80 47/146/80
f 2/147/81 45/135/81 51/138/81
f 44/136/82 43/139/82 49/142/82 50/137/82
f 42/140/83 41/143/83 47/146/83 48/141/83
f 40/144/84 3/148/84 46/145/84
f 49/142/85 48/141/85 54/149/85 55/150/85
f 47/146/86 46/145/86 52/151/86 53/152/86
f 2/153/87 51/138/87 57/154/87
f 50/137/88 49/142/88 55/150/88 56/155/88
f 48/141/89 47/146/89 53/152/89 54/149/89
f 46/145/90 3/156/90 52/151/90
f 51/138/91 50/137/91 56/155/91 57/154/91
f 2/157/92 57/154/92 1/73/92
f 56/155/93 55/150/93 61/77/93 62/74/93
f 54/149/94 53/152/94 59/81/94 60/78/94
f 52/151/95 3/158/95 58/82/95
f 57/154/96 56/155/96 62/74/96 1/73/96
f 55/150/97 54/149/97 60/78/97 61/77/97
f 53/152/98 52/151/98 58/82/98 59/81/98
